<?xml version="1.0" encoding="UTF-8"?>
<svg id="Layer_1" data-name="Layer 1" xmlns="http://www.w3.org/2000/svg" version="1.1" viewBox="0 0 856.8 159.7">
  <defs>
    <style>
      .cls-1, .cls-2, .cls-3, .cls-4 {
        stroke-width: 0px;
      }

      .cls-1, .cls-3 {
        fill: #d91821;
      }

      .cls-2 {
        fill: #333;
      }

      .cls-2, .cls-3 {
        fill-opacity: 0;
      }

      .cls-4 {
        fill: #fff;
      }

      .cls-5 {
        display: none;
      }
    </style>
  </defs>
  <rect class="cls-2" x="-188" y="-449" width="1920" height="1080"/>
  <g>
    <g class="cls-5">
      <g>
        <rect class="cls-3" x="612.8" y="-94.8" width="324" height="371.5"/>
        <path class="cls-1" d="M905.6,34.6c-5.5-3.4-12.7-1.7-16.1,3.7-3.4,5.5-1.7,12.7,3.7,16.1,12.7,7.9,20.3,21.6,20.3,36.6s-7.6,28.7-20.3,36.6l-191.2,119.2c-13.5,8.4-29.8,8.8-43.7,1.1-13.9-7.7-22.2-21.8-22.2-37.7V-28.2c0-15.9,8.3-30,22.2-37.7,13.9-7.7,30.2-7.3,43.7,1.1L813.4,4.6c5.5,3.4,12.7,1.7,16.1-3.7,3.4-5.5,1.7-12.7-3.7-16.1h0l-111.3-69.4c-20.8-13-46-13.6-67.4-1.7-21.4,11.9-34.2,33.6-34.2,58.1v238.4c0,24.5,12.8,46.2,34.2,58.1,10.2,5.7,21.2,8.5,32.3,8.5s24.2-3.4,35.1-10.2l191.2-119.2c19.6-12.2,31.3-33.3,31.3-56.4s-11.7-44.1-31.3-56.4Z"/>
      </g>
    </g>
    <g>
      <path class="cls-1" d="M63.2,133.1c-7.7,0-15.1-1-22-3.1-6.9-2.1-12.5-4.9-16.8-8.4h0c-2.3-1.7-3.5-4.1-3.5-7.3h0c0-2.1.6-3.9,1.9-5.5,1.3-1.6,2.8-2.4,4.4-2.4h0c1.8,0,3.9.7,6.2,2.1h0c4.3,3.1,8.9,5.4,13.6,6.8,4.7,1.4,10,2.1,15.7,2.1h0c7.3,0,13-1.3,16.9-3.8,3.9-2.6,5.9-6.4,5.9-11.3h0c0-3.8-1.8-6.8-5.5-8.9-3.7-2.1-9.8-4.1-18.4-6h0c-8.9-1.9-16.1-4.1-21.6-6.7-5.6-2.5-9.7-5.8-12.6-9.7-2.8-3.9-4.2-8.9-4.2-15h0c0-6.2,1.8-11.8,5.3-16.8,3.5-5,8.4-8.8,14.7-11.6,6.3-2.8,13.4-4.1,21.3-4.1h0c14.4,0,26.1,3.8,35.2,11.5h0c1.3,1.1,2.3,2.2,2.8,3.2.5,1.1.8,2.4.8,4h0c0,2.1-.6,3.9-1.9,5.5-1.2,1.6-2.7,2.3-4.4,2.3h0c-1,0-1.9-.2-2.8-.5-.8-.3-2-.8-3.4-1.6h0c-4.1-3-8.2-5.3-12.1-6.7-3.9-1.5-8.6-2.2-14.3-2.2h0c-6.9,0-12.3,1.4-16.3,4.2-4,2.8-6,6.6-6,11.5h0c0,4.1,1.8,7.3,5.3,9.5,3.5,2.2,9.5,4.3,18,6.2h0c9,2,16.3,4.3,21.9,6.7,5.6,2.5,9.9,5.6,12.8,9.5,3,3.8,4.5,8.6,4.5,14.3h0c0,6.2-1.7,11.8-5.2,16.6-3.5,4.8-8.4,8.5-14.7,11.2-6.3,2.7-13.5,4-21.7,4h0ZM153.2,56c10.3,0,17.9,2.5,22.9,7.6,5,5.1,7.5,12.8,7.5,23.2h0v36.9c0,2.7-.8,4.9-2.4,6.4-1.6,1.6-3.8,2.4-6.7,2.4h0c-2.6,0-4.8-.8-6.4-2.5-1.6-1.6-2.5-3.7-2.5-6.4h0v-3.3c-1.7,3.9-4.4,7-8.1,9.2-3.7,2.2-7.9,3.3-12.7,3.3h0c-5,0-9.4-1-13.5-3-4-2-7.2-4.8-9.5-8.3-2.3-3.5-3.5-7.4-3.5-11.8h0c0-5.4,1.4-9.7,4.1-12.8,2.8-3.1,7.3-5.4,13.6-6.8,6.2-1.4,14.9-2.1,25.8-2.1h3.8v-3.5c0-5-1.1-8.6-3.2-10.8-2.1-2.3-5.5-3.4-10.3-3.4h0c-2.9,0-5.9.4-8.9,1.3-3,.8-6.6,2.1-10.8,3.7h0c-2.6,1.3-4.5,2-5.7,2h0c-1.8,0-3.3-.7-4.4-2-1.2-1.3-1.7-3-1.7-5.1h0c0-1.7.4-3.2,1.3-4.4.9-1.3,2.3-2.4,4.3-3.5h0c3.5-1.9,7.7-3.4,12.6-4.5,4.9-1.1,9.7-1.7,14.5-1.7h0ZM148.5,119.3c5,0,9.1-1.7,12.3-5.1,3.2-3.4,4.8-7.8,4.8-13.1h0v-3.2h-2.7c-6.8,0-12,.3-15.7.9-3.7.6-6.4,1.7-8,3.2-1.6,1.5-2.4,3.6-2.4,6.2h0c0,3.2,1.1,5.9,3.4,7.9,2.3,2.1,5.1,3.1,8.4,3.1h0ZM240.1,39.2c-4.6.3-8,1.7-10.1,4.2-2.1,2.5-3.2,6.1-3.2,10.9h0v3.5h12.9c5.6,0,8.5,2.4,8.5,7.1h0c0,4.7-2.8,7.1-8.5,7.1h-12.9v51.6c0,2.9-.9,5.1-2.6,6.7-1.8,1.5-4,2.3-6.7,2.3h0c-2.7,0-5-.8-6.8-2.3-1.8-1.5-2.7-3.7-2.7-6.7h0v-51.6h-7.6c-5.6,0-8.5-2.4-8.5-7.1h0c0-4.8,2.8-7.1,8.5-7.1h7.6v-1c0-9.5,2.5-16.9,7.5-22.3,5-5.4,12-8.5,21.1-9.2h0l3.9-.3c4-.3,6.9.1,8.6,1.3,1.7,1.2,2.5,2.9,2.5,5.4h0c0,4.3-2.5,6.7-7.4,7.3h0l-3.9.3ZM314.7,111.5c1.7,0,3.1.6,4.1,1.9,1.1,1.3,1.6,3.1,1.6,5.3h0c0,3.1-1.9,5.7-5.6,7.9h0c-3.4,1.9-7.3,3.4-11.6,4.6-4.3,1.2-8.5,1.7-12.4,1.7h0c-11.9,0-21.3-3.4-28.3-10.3-6.9-6.9-10.4-16.2-10.4-28.1h0c0-7.6,1.5-14.3,4.5-20.1s7.3-10.4,12.7-13.6c5.5-3.2,11.7-4.8,18.7-4.8h0c6.7,0,12.4,1.5,17.4,4.4,5,2.9,8.8,7,11.5,12.4,2.7,5.3,4.1,11.6,4.1,18.9h0c0,4.3-1.9,6.5-5.7,6.5h-44.6c.6,6.9,2.6,12.1,5.9,15.3,3.3,3.3,8.2,4.9,14.5,4.9h0c3.2,0,6.1-.4,8.5-1.2,2.5-.8,5.3-1.9,8.4-3.3h0c3-1.6,5.2-2.4,6.7-2.4h0ZM288.5,69.3c-5.1,0-9.2,1.6-12.3,4.8s-4.9,7.9-5.5,13.9h34.2c-.2-6.1-1.7-10.8-4.5-14-2.8-3.2-6.8-4.8-11.8-4.8h0ZM385.8,133.1c-10.3,0-19.3-2.2-27-6.7-7.7-4.4-13.6-10.8-17.8-19.1-4.1-8.3-6.2-17.9-6.2-29h0c0-11.1,2.1-20.7,6.2-28.9,4.1-8.2,10-14.5,17.8-19s16.7-6.7,27-6.7h0c6.7,0,12.9,1,18.7,2.9,5.8,2,11,4.8,15.6,8.6h0c1.3,1,2.2,2.1,2.7,3.2.5,1.1.8,2.5.8,4.1h0c0,2.2-.6,4.1-1.8,5.6-1.2,1.5-2.7,2.3-4.4,2.3h0c-2,0-4.1-.7-6.2-2.1h0c-4.3-3.2-8.4-5.5-12.1-6.7-3.7-1.3-7.9-1.9-12.4-1.9h0c-10.5,0-18.4,3.3-23.8,9.8-5.4,6.5-8.1,16.2-8.1,28.9h0c0,12.8,2.7,22.5,8.1,29,5.4,6.6,13.4,9.8,23.8,9.8h0c4.3,0,8.3-.7,12-2,3.7-1.3,7.8-3.5,12.5-6.7h0c1-.6,2-1.1,3-1.5s2.1-.6,3.2-.6h0c1.7,0,3.2.8,4.4,2.3,1.2,1.5,1.8,3.4,1.8,5.6h0c0,1.5-.3,2.9-.8,4-.5,1.2-1.4,2.2-2.7,3.2h0c-4.5,3.7-9.7,6.6-15.6,8.6-5.8,2-12.1,3-18.7,3h0ZM448.4,132.6c-2.7,0-5-.8-6.7-2.3-1.8-1.6-2.6-3.8-2.6-6.7h0v-58.4c0-2.9.9-5.2,2.6-6.7,1.8-1.5,4-2.3,6.7-2.3h0c2.7,0,5,.8,6.8,2.3,1.8,1.5,2.7,3.7,2.7,6.7h0v58.4c0,2.9-.9,5.2-2.7,6.7-1.8,1.6-4.1,2.3-6.8,2.3h0ZM448.4,42.8c-3.4,0-6.1-.9-8.2-2.8-2-1.9-3-4.3-3-7.3h0c0-3,1-5.4,3-7.3,2-1.8,4.7-2.7,8.2-2.7h0c3.3,0,6,.9,8.1,2.7,2.1,1.8,3.1,4.2,3.1,7.3h0c0,3-1,5.5-3,7.3-2,1.9-4.7,2.8-8.2,2.8h0ZM520.3,56c8.9,0,15.5,2.5,19.8,7.6,4.3,5,6.5,12.7,6.5,22.9h0v37.2c0,2.8-.8,5-2.5,6.7-1.7,1.6-4,2.4-6.9,2.4h0c-2.9,0-5.3-.8-7-2.4-1.7-1.6-2.6-3.8-2.6-6.7h0v-36.2c0-5.7-1.1-9.9-3.2-12.5s-5.6-3.9-10.2-3.9h0c-5.4,0-9.8,1.7-13.1,5.1-3.3,3.4-4.9,8-4.9,13.7h0v33.7c0,2.8-.8,5-2.5,6.7-1.7,1.6-4,2.4-7,2.4h0c-2.9,0-5.2-.8-6.9-2.4-1.6-1.6-2.5-3.8-2.5-6.7h0v-58.5c0-2.6.8-4.7,2.5-6.4,1.7-1.6,4-2.4,7-2.4h0c2.6,0,4.8.8,6.4,2.4,1.7,1.6,2.5,3.6,2.5,6.1h0v4.1c2.5-4.1,5.9-7.3,10.1-9.5,4.2-2.2,9-3.3,14.4-3.3h0ZM624.3,111.5c1.7,0,3.1.6,4.1,1.9,1.1,1.3,1.6,3.1,1.6,5.3h0c0,3.1-1.9,5.7-5.6,7.9h0c-3.4,1.9-7.3,3.4-11.6,4.6-4.3,1.2-8.5,1.7-12.4,1.7h0c-11.9,0-21.3-3.4-28.3-10.3-6.9-6.9-10.4-16.2-10.4-28.1h0c0-7.6,1.5-14.3,4.5-20.1,3-5.8,7.3-10.4,12.7-13.6,5.5-3.2,11.7-4.8,18.7-4.8h0c6.7,0,12.4,1.5,17.4,4.4,5,2.9,8.8,7,11.5,12.4,2.7,5.3,4.1,11.6,4.1,18.9h0c0,4.3-1.9,6.5-5.7,6.5h-44.6c.6,6.9,2.6,12.1,5.9,15.3,3.3,3.3,8.2,4.9,14.5,4.9h0c3.2,0,6.1-.4,8.5-1.2,2.5-.8,5.3-1.9,8.4-3.3h0c3-1.6,5.2-2.4,6.7-2.4h0ZM598.2,69.3c-5.1,0-9.2,1.6-12.3,4.8s-4.9,7.9-5.5,13.9h34.2c-.2-6.1-1.7-10.8-4.5-14-2.8-3.2-6.8-4.8-11.8-4.8h0ZM733.9,56c8.1,0,14.2,2.4,18.5,7.2,4.3,4.8,6.4,12.5,6.4,23.2h0v37.2c0,2.9-.9,5.2-2.7,6.7-1.8,1.6-4,2.3-6.9,2.3h0c-2.7,0-5-.8-6.7-2.3-1.8-1.6-2.6-3.8-2.6-6.7h0v-37.2c0-5.6-1-9.5-2.9-11.9-2-2.4-5-3.5-9-3.5h0c-5,0-8.9,1.7-11.8,5.1-2.9,3.4-4.4,8-4.4,13.8h0v33.7c0,2.9-.9,5.2-2.6,6.7-1.8,1.6-4,2.3-6.7,2.3h0c-2.7,0-5-.8-6.8-2.3-1.8-1.6-2.7-3.8-2.7-6.7h0v-37.2c0-5.6-1-9.5-3-11.9-2-2.4-5-3.5-9-3.5h0c-4.9,0-8.8,1.7-11.7,5.1-2.9,3.4-4.3,8-4.3,13.8h0v33.7c0,2.9-.9,5.2-2.7,6.7-1.8,1.6-4.1,2.3-6.8,2.3h0c-2.7,0-5-.8-6.7-2.3-1.8-1.6-2.6-3.8-2.6-6.7h0v-58.5c0-2.8.9-5,2.7-6.5,1.8-1.5,4.1-2.3,6.8-2.3h0c2.6,0,4.8.7,6.4,2.2,1.7,1.5,2.5,3.6,2.5,6.3h0v3.6c2.3-4,5.4-7.1,9.3-9.2,3.9-2.1,8.4-3.2,13.4-3.2h0c11.1,0,18.5,4.6,22.2,13.9h0c2.2-4.2,5.5-7.6,9.8-10.1,4.3-2.5,9.2-3.8,14.6-3.8h0ZM810.2,56c10.3,0,17.9,2.5,22.9,7.6,5,5.1,7.5,12.8,7.5,23.2h0v36.9c0,2.7-.8,4.9-2.4,6.4-1.6,1.6-3.8,2.4-6.7,2.4h0c-2.6,0-4.8-.8-6.4-2.5-1.7-1.6-2.5-3.7-2.5-6.4h0v-3.3c-1.7,3.9-4.4,7-8.1,9.2-3.7,2.2-7.9,3.3-12.8,3.3h0c-4.9,0-9.4-1-13.4-3-4-2-7.2-4.8-9.5-8.3-2.3-3.5-3.5-7.4-3.5-11.8h0c0-5.4,1.4-9.7,4.1-12.8,2.8-3.1,7.3-5.4,13.5-6.8,6.2-1.4,14.9-2.1,25.9-2.1h3.8v-3.5c0-5-1.1-8.6-3.2-10.8-2.1-2.3-5.6-3.4-10.3-3.4h0c-2.9,0-5.9.4-8.9,1.3-3,.8-6.6,2.1-10.7,3.7h0c-2.6,1.3-4.5,2-5.7,2h0c-1.8,0-3.3-.7-4.5-2-1.2-1.3-1.7-3-1.7-5.1h0c0-1.7.4-3.2,1.3-4.4.9-1.3,2.3-2.4,4.3-3.5h0c3.5-1.9,7.7-3.4,12.6-4.5,4.9-1.1,9.7-1.7,14.4-1.7h0ZM805.5,119.3c5,0,9.1-1.7,12.3-5.1,3.2-3.4,4.8-7.8,4.8-13.1h0v-3.2h-2.7c-6.7,0-12,.3-15.7.9-3.7.6-6.4,1.7-8,3.2-1.6,1.5-2.4,3.6-2.4,6.2h0c0,3.2,1.1,5.9,3.4,7.9,2.3,2.1,5.1,3.1,8.4,3.1h0Z"/>
      <g class="cls-5">
        <g>
          <path class="cls-1" d="M148.4,203.8l.9-.4c1.3-.6,2.3-1.3,3.1-2.3.5-.6.8-1.3.9-2.1-.8,0-1.5-.4-2.2-.9-.9-.7-1.3-1.7-1.3-3s.4-2.2,1.3-3c.8-.7,1.8-1.1,2.9-1.1s2.6.6,3.4,1.8c.8,1.1,1.2,2.5,1.2,4.3s-.7,4.6-2,6.4c-1.3,1.8-3.1,3.2-5.4,4.2l-.9.4-1.8-4.3ZM864.9,199.6c-2.5,0-4.9-.5-7.1-1.4-2.2-.9-4-2.3-5.6-3.9l-.6-.7,3.9-4.6.8.8c1.1,1.2,2.5,2.2,4,2.9,1.5.7,3.1,1.1,4.7,1.1s3.5-.4,4.6-1.3c1-.8,1.5-1.9,1.5-3.3s-.1-1.3-.3-1.8c-.2-.5-.5-.9-.9-1.2-.4-.4-1-.7-1.6-1s-1.4-.7-2.2-1.1l-4.8-2.1c-.8-.4-1.7-.8-2.6-1.3-.9-.5-1.7-1.2-2.4-2-.7-.8-1.3-1.7-1.8-2.7-.5-1.1-.7-2.3-.7-3.7s.3-2.8.9-4c.6-1.2,1.4-2.3,2.5-3.2,1-.9,2.3-1.6,3.7-2.1,1.4-.5,2.9-.7,4.6-.7s4.2.4,6.1,1.3c1.8.8,3.4,1.9,4.7,3.3l.6.6-3.6,4.3-.8-.7c-1-.9-2-1.6-3.2-2.1-1.1-.5-2.4-.8-3.9-.8s-3,.4-4,1.1c-.9.7-1.3,1.6-1.3,2.8s.1,1.2.4,1.6c.3.4.6.9,1.1,1.2.5.4,1,.7,1.6,1,.6.3,1.3.6,2,.9l4.8,2.1c1,.4,2,.9,2.9,1.5.9.6,1.8,1.3,2.4,2,.7.8,1.3,1.7,1.7,2.8.4,1.1.6,2.3.6,3.7s-.3,2.9-.9,4.2c-.6,1.3-1.5,2.4-2.6,3.4-1.1,1-2.4,1.7-4,2.3-1.5.5-3.2.8-5.1.8ZM838,199.6c-2.5,0-4.9-.5-7.1-1.4-2.2-.9-4-2.3-5.6-3.9l-.6-.7,3.9-4.6.8.8c1.1,1.2,2.5,2.2,4,2.9,1.5.7,3.1,1.1,4.7,1.1s3.5-.4,4.6-1.3c1-.8,1.5-1.9,1.5-3.3s-.1-1.3-.3-1.8c-.2-.5-.5-.9-.9-1.2-.4-.4-1-.7-1.6-1-.7-.3-1.4-.7-2.2-1.1l-4.8-2.1c-.8-.4-1.7-.8-2.6-1.3-.9-.5-1.7-1.2-2.4-2-.7-.8-1.3-1.7-1.8-2.7-.5-1.1-.7-2.3-.7-3.7s.3-2.8.9-4c.6-1.2,1.4-2.3,2.5-3.2,1-.9,2.3-1.6,3.7-2.1,1.4-.5,2.9-.7,4.6-.7s4.2.4,6.1,1.3c1.8.8,3.4,1.9,4.7,3.3l.6.6-3.6,4.3-.8-.7c-1-.9-2-1.6-3.2-2.1-1.1-.5-2.4-.8-3.9-.8s-3,.4-4,1.1c-.9.7-1.3,1.6-1.3,2.8s.1,1.2.4,1.6c.3.4.6.9,1.1,1.2.5.4,1,.7,1.6,1,.6.3,1.3.6,2,.9l4.8,2.1c1,.4,2,.9,2.9,1.5.9.6,1.8,1.3,2.4,2,.7.8,1.3,1.7,1.7,2.8.4,1.1.6,2.3.6,3.7s-.3,2.9-.9,4.2c-.6,1.3-1.5,2.4-2.6,3.4-1.1,1-2.4,1.7-4,2.3-1.5.5-3.2.8-5.1.8ZM509.5,199.6c-2.5,0-4.9-.5-7.1-1.4-2.2-.9-4-2.3-5.6-3.9l-.6-.7,3.9-4.6.8.8c1.1,1.2,2.5,2.2,4,2.9,1.5.7,3.1,1.1,4.7,1.1s3.5-.4,4.6-1.3c1-.8,1.5-1.9,1.5-3.3s-.1-1.3-.3-1.8c-.2-.5-.5-.9-.9-1.2-.4-.4-1-.7-1.6-1-.7-.3-1.4-.7-2.2-1.1l-4.8-2.1c-.8-.4-1.7-.8-2.6-1.3-.9-.5-1.7-1.2-2.4-2-.7-.8-1.3-1.7-1.8-2.7-.5-1.1-.7-2.3-.7-3.7s.3-2.8.9-4c.6-1.2,1.4-2.3,2.5-3.2,1-.9,2.3-1.6,3.7-2.1,1.4-.5,2.9-.7,4.6-.7s4.2.4,6.1,1.3c1.8.8,3.4,1.9,4.7,3.3l.6.6-3.6,4.3-.8-.7c-1-.9-2-1.6-3.2-2.1-1.1-.5-2.4-.8-3.9-.8s-3,.4-4,1.1c-.9.7-1.3,1.6-1.3,2.8s.1,1.2.4,1.6c.3.4.6.9,1.1,1.2.5.4,1,.7,1.6,1,.6.3,1.3.6,2,.9l4.8,2.1c1,.4,2,.9,2.9,1.5.9.6,1.8,1.3,2.4,2,.7.8,1.3,1.7,1.7,2.8.4,1.1.6,2.3.6,3.6s-.3,2.9-.9,4.2c-.6,1.3-1.5,2.4-2.6,3.4-1.1,1-2.4,1.7-4,2.3-1.5.5-3.2.8-5.1.8ZM482.6,199.6c-2.5,0-4.9-.5-7.1-1.4-2.2-.9-4-2.3-5.6-3.9l-.6-.7,3.9-4.6.8.8c1.1,1.2,2.5,2.2,4,2.9,1.5.7,3.1,1.1,4.7,1.1s3.5-.4,4.6-1.3c1-.8,1.5-1.9,1.5-3.3s-.1-1.3-.3-1.8c-.2-.5-.5-.9-.9-1.2-.4-.4-1-.7-1.6-1-.7-.3-1.4-.7-2.2-1.1l-4.8-2.1c-.8-.4-1.7-.8-2.6-1.3-.9-.5-1.7-1.2-2.4-2-.7-.8-1.3-1.7-1.8-2.7-.5-1.1-.7-2.3-.7-3.7s.3-2.8.9-4c.6-1.2,1.4-2.3,2.5-3.2,1-.9,2.3-1.6,3.7-2.1,1.4-.5,2.9-.7,4.6-.7s4.2.4,6.1,1.3c1.8.8,3.4,1.9,4.7,3.3l.6.6-3.6,4.3-.8-.7c-1-.9-2-1.6-3.2-2.1-1.1-.5-2.4-.8-3.9-.8s-3,.4-4,1.1c-.9.7-1.3,1.6-1.3,2.8s.1,1.2.4,1.6c.3.4.6.9,1.1,1.2.5.4,1,.7,1.6,1,.6.3,1.3.6,2,.9l4.8,2.1c1,.4,2,.9,2.9,1.5.9.6,1.8,1.3,2.4,2,.7.8,1.3,1.7,1.7,2.8.4,1.1.6,2.3.6,3.6s-.3,2.9-.9,4.2c-.6,1.3-1.5,2.4-2.6,3.4-1.1,1-2.4,1.7-4,2.3-1.5.5-3.2.8-5.1.8ZM221.4,199.6c-2.3,0-4.4-.4-6.3-1.3-1.9-.9-3.6-2.2-4.9-3.9-1.4-1.6-2.4-3.6-3.2-5.9-.7-2.3-1.1-4.9-1.1-7.7s.4-5.4,1.1-7.7c.7-2.3,1.8-4.2,3.2-5.8,1.4-1.6,3-2.8,4.9-3.7,1.9-.9,4-1.3,6.3-1.3s4.4.5,6.3,1.3c1.9.9,3.6,2.1,5,3.7,1.4,1.6,2.5,3.5,3.2,5.8.7,2.3,1.1,4.8,1.1,7.6s-.4,5.4-1.1,7.7c-.8,2.3-1.8,4.3-3.2,5.9-1.4,1.7-3.1,3-5,3.8-1.9.9-4,1.3-6.3,1.3ZM221.4,168.1c-1.4,0-2.6.3-3.6.8-1.1.6-2.1,1.4-2.9,2.4-.8,1.1-1.4,2.4-1.9,4-.5,1.6-.7,3.4-.7,5.4s.2,3.9.7,5.5c.5,1.6,1.1,3,1.9,4.1.8,1.1,1.7,1.9,2.8,2.5,1.1.6,2.3.9,3.6.9s2.6-.3,3.6-.9c1.1-.6,2.1-1.4,2.9-2.5.8-1.1,1.4-2.5,1.9-4.1.5-1.6.7-3.5.7-5.5s-.2-3.8-.7-5.4c-.5-1.6-1.1-2.9-1.9-4-.8-1-1.7-1.9-2.8-2.4-1.1-.6-2.3-.8-3.6-.8ZM133.7,199.6c-2.5,0-4.9-.5-7.1-1.4-2.2-.9-4-2.3-5.6-3.9l-.6-.7,3.9-4.6.8.8c1.1,1.2,2.5,2.2,4,2.9,1.5.7,3.1,1.1,4.7,1.1s3.5-.4,4.6-1.3c1-.8,1.5-1.9,1.5-3.3s-.1-1.3-.3-1.8c-.2-.5-.5-.9-.9-1.2-.4-.4-1-.7-1.6-1-.7-.3-1.4-.7-2.2-1.1l-4.8-2.1c-.8-.4-1.7-.8-2.6-1.3-.9-.5-1.7-1.2-2.4-2-.7-.8-1.3-1.7-1.8-2.7-.5-1.1-.7-2.3-.7-3.7s.3-2.8.9-4c.6-1.2,1.4-2.3,2.5-3.2,1-.9,2.3-1.6,3.7-2.1,1.4-.5,2.9-.7,4.6-.7s4.2.4,6.1,1.3c1.8.8,3.4,1.9,4.7,3.3l.6.6-3.6,4.3-.8-.7c-1-.9-2-1.6-3.2-2.1-1.1-.5-2.4-.8-3.9-.8s-3,.4-4,1.1c-.9.7-1.3,1.6-1.3,2.8s.1,1.2.4,1.6c.3.4.6.9,1.1,1.2.5.4,1,.7,1.6,1,.6.3,1.3.6,2,.9l4.8,2.1c1,.4,2,.9,2.9,1.5.9.6,1.8,1.3,2.4,2,.7.8,1.3,1.7,1.7,2.8.4,1.1.6,2.3.6,3.6s-.3,2.9-.9,4.2c-.6,1.3-1.5,2.4-2.6,3.4-1.1,1-2.4,1.7-4,2.3-1.5.5-3.2.8-5.1.8ZM35.3,199.6c-2.3,0-4.4-.4-6.3-1.3-1.9-.9-3.6-2.2-5-3.9-1.3-1.6-2.4-3.6-3.2-5.9-.7-2.3-1.1-4.9-1.1-7.7s.4-5.4,1.1-7.6c.8-2.3,1.8-4.2,3.2-5.8,1.4-1.6,3.1-2.9,5-3.7,1.9-.9,4-1.3,6.3-1.3s4.4.5,6.3,1.3c1.9.9,3.6,2.1,5,3.7,1.4,1.6,2.4,3.6,3.2,5.8.7,2.2,1.1,4.8,1.1,7.6s-.4,5.4-1.1,7.7c-.7,2.3-1.8,4.3-3.2,5.9-1.4,1.7-3.1,3-5,3.8-1.9.9-4,1.3-6.3,1.3ZM35.3,168.1c-1.4,0-2.6.3-3.7.8-1.1.6-2,1.4-2.8,2.4-.8,1.1-1.4,2.4-1.9,4-.5,1.6-.7,3.4-.7,5.4s.2,3.9.7,5.5c.5,1.6,1.1,3,1.9,4.1.8,1.1,1.7,1.9,2.8,2.5,1.1.6,2.3.9,3.7.9s2.6-.3,3.6-.9c1.1-.6,2-1.4,2.8-2.5.8-1.1,1.5-2.5,1.9-4.1.5-1.6.7-3.5.7-5.5s-.2-3.8-.7-5.4c-.5-1.6-1.1-2.9-1.9-4-.8-1.1-1.7-1.9-2.8-2.4-1.1-.6-2.3-.8-3.6-.8ZM800.2,199v-36h21.6v5.6h-15.3v8.7h12.9v5.7h-12.9v10.4h15.8v5.7h-22.1ZM786.8,199l-12.6-21.9-1.7-3.2c0,.3,0,.6,0,.9.1,1.8.2,3.6.2,5.4v18.8h-6.1v-36h6.1l12.6,21.8,1.7,3.3c0-.4,0-.7,0-1.1-.1-1.9-.2-3.7-.2-5.5v-18.6h6.1v36h-6ZM734.7,199v-36h9.5c5.5,0,9.8,1.6,12.7,4.7,2.9,3.1,4.4,7.5,4.4,13.2s-.4,5.3-1.1,7.5c-.7,2.3-1.8,4.2-3.3,5.8-1.4,1.6-3.2,2.8-5.3,3.6-2.1.8-4.5,1.2-7.1,1.2h-9.7ZM743.9,193.5c3.7,0,6.4-1,8.2-3.2,1.8-2.2,2.7-5.4,2.7-9.4s-.9-7.2-2.7-9.2c-1.8-2.1-4.5-3.1-8.2-3.1h-2.9v25h2.9ZM723.7,199l-8.2-14.3h-4.6v14.3h-6.3v-36h11.6c1.8,0,3.5.2,5,.5,1.6.4,3,1,4.2,1.8,1.2.8,2.1,2,2.8,3.3.6,1.4,1,3,1,4.9,0,2.9-.8,5.2-2.3,7-1.2,1.4-2.9,2.5-4.8,3.2l8.8,15.2h-7.2ZM715.7,179.1c2.4,0,4.3-.5,5.5-1.4,1.2-.9,1.8-2.3,1.8-4.1s-.6-3.2-1.7-3.9c-1.2-.8-3.1-1.2-5.6-1.2h-4.7v10.7h4.7ZM695.5,199l-3.2-10.4h-10.9l-3.3,10.4h-6.5l12.2-36h6.3l12.2,36h-6.8ZM690.5,183.2l-1.2-3.9c-.6-1.9-1.2-3.8-1.8-5.7-.3-.9-.5-1.8-.8-2.7-.3.9-.5,1.8-.8,2.7-.5,1.9-1.1,3.8-1.8,5.7l-1.2,3.9h7.5ZM658.5,199l-5.3-21.2c-.3-1.3-.6-2.5-.8-3.7-.3,1.2-.6,2.4-.8,3.6l-5.3,21.3h-6.7l-7.5-35.2-10.9,13.3,12.8,21.9h-7.1l-9.7-16.9-4.7,5.5v11.4h-6.3v-36h6.3v15.5l12.8-15.5h13.2l3.7,19.3c.3,1.9.7,3.7,1,5.5,0,.3.1.6.2,1,0-.3.2-.7.2-1,.4-1.8.8-3.6,1.2-5.5l5-19.3h5.5l4.9,19.2c.4,1.8.8,3.6,1.3,5.5,0,.4.2.7.2,1.1,0-.3.1-.7.2-1,.3-1.8.7-3.7,1-5.5l3.7-19.3h6.2l-7.5,36h-6.8ZM588.3,199l-5.3-21.2c-.3-1.3-.6-2.5-.8-3.7-.3,1.2-.6,2.4-.8,3.6l-5.3,21.3h-6.7l-7.6-36h6.5l3.7,19.3c.3,1.9.7,3.7,1,5.5,0,.3.1.6.2,1,0-.3.2-.7.2-1,.4-1.8.8-3.6,1.2-5.5l5-19.3h5.5l4.9,19.2c.4,1.8.8,3.6,1.3,5.5,0,.4.2.7.2,1.1,0-.3.1-.7.2-1,.3-1.8.7-3.7,1-5.5l3.7-19.3h6.2l-7.5,36h-6.8ZM556.3,199l-3.2-10.4h-10.9l-3.3,10.4h-6.5l12.2-36h6.3l12.2,36h-6.8ZM551.3,183.2l-1.2-3.9c-.6-1.9-1.2-3.8-1.8-5.7-.3-.9-.5-1.8-.8-2.7-.3.9-.5,1.8-.8,2.7-.5,1.9-1.1,3.8-1.8,5.7l-1.2,3.9h7.5ZM444.8,199v-36h21.6v5.6h-15.3v8.7h12.9v5.7h-12.9v10.4h15.8v5.7h-22.1ZM419.6,199v-36h6.3v30.3h14.9v5.7h-21.2ZM395.4,199v-16h-13.8v16h-6.3v-36h6.3v14.3h13.8v-14.3h6.4v36h-6.4ZM354.6,199v-30.4h-10.3v-5.6h26.9v5.6h-10.2v30.4h-6.4ZM333.9,199v-36h6.3v36h-6.3ZM316,199l-5.3-21.2c-.3-1.3-.6-2.5-.8-3.7-.3,1.2-.5,2.4-.8,3.6l-5.2,21.3h-6.7l-7.6-36h6.6l3.7,19.3c.3,1.9.6,3.7,1,5.5,0,.3.1.7.2,1,0-.3.2-.7.2-1,.4-1.8.8-3.6,1.2-5.5l4.9-19.3h5.5l4.9,19.2,1.2,5.5c0,.4.2.8.3,1.2,0-.4.1-.7.2-1.1.3-1.8.6-3.7,1-5.5l3.7-19.3h6.2l-7.5,36h-6.8ZM264.8,199l-5.3-21.2c-.3-1.3-.6-2.5-.8-3.7-.3,1.2-.6,2.4-.8,3.6l-5.3,21.3h-6.7l-7.6-36h6.5l3.7,19.3c.3,1.9.6,3.7,1,5.5,0,.3.1.7.2,1,0-.3.2-.7.2-1,.4-1.8.8-3.6,1.2-5.5l5-19.3h5.5l4.9,19.2c.4,1.8.8,3.6,1.3,5.5,0,.4.2.7.2,1.1,0-.3.1-.7.2-1,.3-1.8.6-3.7,1-5.5l3.7-19.3h6.2l-7.5,36h-6.8ZM194.5,199l-12.6-21.9-1.7-3.2c0,.3,0,.6,0,.9.1,1.8.2,3.6.2,5.4v18.8h-6.1v-36h6l12.6,21.8,1.7,3.4c0-.4,0-.7,0-1.1-.1-1.9-.2-3.7-.2-5.5v-18.6h6.1v36h-6.1ZM95.9,199v-36h21.6v5.6h-15.3v8.7h12.9v5.7h-12.9v10.4h15.8v5.7h-22.1ZM82.3,199v-36h6.3v36h-6.3ZM62.1,199l-11.5-36h6.7l5.7,19.1c.6,2,1.2,3.9,1.6,5.6.2.9.5,1.8.8,2.8.3-1,.6-1.9.8-2.8.5-1.7,1-3.6,1.6-5.6l5.7-19.1h6.5l-11.4,36h-6.5ZM8.3,199v-19.7c0-1.2,0-2.4,0-3.7l-7.3,20h-3.8l-6.9-18.5-.5-1.4c0,1.3,0,2.4,0,3.5v19.7h-6v-36h6.8L-.7,186.4l1.6-4.5,6.8-18.9h6.8v36h-6.1Z"/>
          <path class="cls-4" d="M865.3,163.3c2,0,3.9.4,5.7,1.2,1.7.8,3.2,1.8,4.4,3.1l-2.3,2.8c-1-1-2.2-1.8-3.5-2.3-1.3-.6-2.7-.9-4.3-.9s-3.4.4-4.6,1.3c-1.2.9-1.7,2.1-1.7,3.6s.2,1.5.5,2.1c.3.6.8,1.1,1.3,1.5.5.4,1.2.8,1.8,1.1.7.3,1.3.6,2,.9l4.8,2.1c1,.4,1.9.9,2.8,1.4.9.5,1.6,1.2,2.2,1.9.6.7,1.1,1.6,1.5,2.5.3,1,.5,2,.5,3.3s-.3,2.6-.8,3.8c-.5,1.2-1.3,2.2-2.3,3.1-1,.9-2.2,1.6-3.6,2.1-1.4.5-3,.7-4.8.7s-4.6-.4-6.7-1.3c-2-.9-3.8-2.1-5.3-3.7l2.6-3c1.2,1.3,2.6,2.3,4.3,3.1,1.6.8,3.3,1.2,5.1,1.2s4-.5,5.2-1.6c1.2-1,1.9-2.3,1.9-4,0-.9-.1-1.6-.4-2.2s-.7-1.1-1.2-1.6c-.5-.4-1.1-.8-1.8-1.2-.7-.3-1.4-.7-2.2-1.1l-4.8-2.1c-.8-.3-1.6-.8-2.5-1.3-.8-.5-1.6-1.1-2.2-1.8-.7-.7-1.2-1.5-1.6-2.5-.4-1-.6-2-.6-3.3s.3-2.5.8-3.6c.5-1.1,1.3-2,2.2-2.9,1-.8,2.1-1.4,3.4-1.9,1.3-.5,2.7-.7,4.3-.7M838.3,163.3c2,0,3.9.4,5.7,1.2,1.7.8,3.2,1.8,4.4,3.1l-2.3,2.8c-1-1-2.2-1.8-3.5-2.3-1.3-.6-2.7-.9-4.3-.9s-3.4.4-4.6,1.3c-1.2.9-1.7,2.1-1.7,3.6s.2,1.5.5,2.1c.3.6.8,1.1,1.3,1.5.5.4,1.2.8,1.8,1.1.7.3,1.3.6,2,.9l4.8,2.1c1,.4,1.9.9,2.8,1.4.9.5,1.6,1.2,2.2,1.9.6.7,1.1,1.6,1.5,2.5.3,1,.5,2,.5,3.3s-.3,2.6-.8,3.8c-.5,1.2-1.3,2.2-2.3,3.1-1,.9-2.2,1.6-3.6,2.1-1.4.5-3,.7-4.8.7s-4.6-.4-6.7-1.3-3.8-2.1-5.3-3.7l2.6-3c1.2,1.3,2.6,2.3,4.3,3.1,1.6.8,3.3,1.2,5.1,1.2s4-.5,5.2-1.6c1.2-1,1.9-2.3,1.9-4s-.1-1.6-.4-2.2-.7-1.1-1.2-1.6c-.5-.4-1.1-.8-1.8-1.2-.7-.3-1.4-.7-2.2-1.1l-4.8-2.1c-.8-.3-1.6-.8-2.5-1.3-.8-.5-1.6-1.1-2.2-1.8-.7-.7-1.2-1.5-1.6-2.5-.4-1-.6-2-.6-3.3s.3-2.5.8-3.6c.5-1.1,1.3-2,2.2-2.9,1-.8,2.1-1.4,3.4-1.9,1.3-.5,2.7-.7,4.3-.7M509.9,163.3c2,0,3.9.4,5.7,1.2,1.7.8,3.2,1.8,4.4,3.1l-2.3,2.8c-1-1-2.2-1.8-3.5-2.3-1.3-.6-2.7-.9-4.3-.9s-3.4.4-4.6,1.3c-1.2.9-1.7,2.1-1.7,3.6s.2,1.5.5,2.1c.3.6.8,1.1,1.3,1.5.5.4,1.2.8,1.8,1.1.7.3,1.3.6,2,.9l4.8,2.1c1,.4,1.9.9,2.8,1.4.9.5,1.6,1.2,2.2,1.9.6.7,1.1,1.6,1.5,2.5.3,1,.5,2,.5,3.3s-.3,2.6-.8,3.8c-.5,1.2-1.3,2.2-2.3,3.1-1,.9-2.2,1.6-3.6,2.1-1.4.5-3,.7-4.8.7s-4.6-.4-6.7-1.3c-2-.9-3.8-2.1-5.3-3.7l2.6-3c1.2,1.3,2.6,2.3,4.3,3.1,1.6.8,3.3,1.2,5.1,1.2s4-.5,5.2-1.6c1.2-1,1.9-2.3,1.9-4s-.1-1.6-.4-2.2c-.3-.6-.7-1.1-1.2-1.6-.5-.4-1.1-.8-1.8-1.2-.7-.3-1.4-.7-2.2-1.1l-4.8-2.1c-.8-.3-1.6-.8-2.5-1.3-.8-.5-1.6-1.1-2.2-1.8-.7-.7-1.2-1.5-1.6-2.5-.4-1-.6-2-.6-3.3s.3-2.5.8-3.6c.5-1.1,1.3-2,2.2-2.9,1-.8,2.1-1.4,3.4-1.9,1.3-.5,2.7-.7,4.3-.7M483,163.3c2,0,3.9.4,5.7,1.2,1.7.8,3.2,1.8,4.4,3.1l-2.3,2.8c-1-1-2.2-1.8-3.5-2.3-1.3-.6-2.7-.9-4.3-.9s-3.4.4-4.6,1.3c-1.2.9-1.7,2.1-1.7,3.6s.2,1.5.5,2.1c.3.6.8,1.1,1.3,1.5.5.4,1.2.8,1.8,1.1.7.3,1.3.6,2,.9l4.8,2.1c1,.4,1.9.9,2.8,1.4.9.5,1.6,1.2,2.2,1.9.6.7,1.1,1.6,1.5,2.5.3,1,.5,2,.5,3.3s-.3,2.6-.8,3.8c-.5,1.2-1.3,2.2-2.3,3.1-1,.9-2.2,1.6-3.6,2.1-1.4.5-3,.7-4.8.7s-4.6-.4-6.7-1.3c-2-.9-3.8-2.1-5.3-3.7l2.6-3c1.2,1.3,2.6,2.3,4.3,3.1,1.6.8,3.3,1.2,5.1,1.2s4-.5,5.2-1.6c1.2-1,1.9-2.3,1.9-4s-.1-1.6-.4-2.2c-.3-.6-.7-1.1-1.2-1.6-.5-.4-1.1-.8-1.8-1.2-.7-.3-1.4-.7-2.2-1.1l-4.8-2.1c-.8-.3-1.6-.8-2.5-1.3-.8-.5-1.6-1.1-2.2-1.8-.7-.7-1.2-1.5-1.6-2.5-.4-1-.6-2-.6-3.3s.3-2.5.8-3.6c.5-1.1,1.3-2,2.2-2.9,1-.8,2.1-1.4,3.4-1.9,1.3-.5,2.7-.7,4.3-.7M221.4,163.3c2.1,0,4.1.4,5.9,1.3,1.8.8,3.3,2,4.6,3.5s2.3,3.3,3,5.5c.7,2.2,1,4.6,1,7.3s-.3,5.2-1,7.4c-.7,2.2-1.7,4-3,5.6-1.3,1.6-2.8,2.8-4.6,3.6-1.8.8-3.7,1.2-5.9,1.2s-4.1-.4-5.9-1.2c-1.8-.8-3.3-2-4.6-3.6-1.3-1.5-2.3-3.4-3-5.6-.7-2.2-1.1-4.7-1.1-7.4s.4-5.2,1.1-7.3c.7-2.2,1.7-4,3-5.5,1.3-1.5,2.8-2.6,4.6-3.5,1.8-.8,3.7-1.2,5.9-1.2M221.4,194.8c1.5,0,2.9-.3,4.1-1,1.2-.7,2.3-1.6,3.2-2.8.9-1.2,1.5-2.7,2-4.4.5-1.7.7-3.7.7-5.8s-.2-4-.7-5.7c-.5-1.7-1.2-3.1-2-4.3-.9-1.2-2-2.1-3.2-2.7-1.2-.6-2.6-1-4.1-1s-2.9.3-4.1,1c-1.2.6-2.3,1.5-3.2,2.7-.9,1.2-1.5,2.6-2,4.3-.5,1.7-.7,3.6-.7,5.7s.2,4.1.7,5.8c.5,1.7,1.2,3.2,2,4.4.9,1.2,2,2.1,3.2,2.8,1.2.7,2.6,1,4.1,1M134.1,163.3c2,0,3.9.4,5.7,1.2,1.7.8,3.2,1.8,4.4,3.1l-2.3,2.8c-1-1-2.2-1.8-3.5-2.3-1.3-.6-2.7-.9-4.3-.9s-3.4.4-4.6,1.3c-1.2.9-1.7,2.1-1.7,3.6s.2,1.5.5,2.1c.3.6.8,1.1,1.3,1.5.5.4,1.2.8,1.8,1.1.7.3,1.3.6,2,.9l4.8,2.1c1,.4,1.9.9,2.8,1.4s1.6,1.2,2.2,1.9c.6.7,1.1,1.6,1.5,2.5.3,1,.5,2,.5,3.3s-.3,2.6-.8,3.8c-.5,1.2-1.3,2.2-2.3,3.1-1,.9-2.2,1.6-3.6,2.1-1.4.5-3,.7-4.8.7s-4.6-.4-6.7-1.3c-2-.9-3.8-2.1-5.3-3.7l2.6-3c1.2,1.3,2.6,2.3,4.3,3.1,1.6.8,3.3,1.2,5.1,1.2s4-.5,5.2-1.6c1.2-1,1.9-2.3,1.9-4s-.1-1.6-.4-2.2c-.3-.6-.7-1.1-1.2-1.6-.5-.4-1.1-.8-1.8-1.2-.7-.3-1.4-.7-2.2-1.1l-4.8-2.1c-.8-.3-1.6-.8-2.5-1.3-.8-.5-1.6-1.1-2.2-1.8-.7-.7-1.2-1.5-1.6-2.5-.4-1-.6-2-.6-3.3s.3-2.5.8-3.6c.5-1.1,1.3-2,2.2-2.9,1-.8,2.1-1.4,3.4-1.9,1.3-.5,2.7-.7,4.3-.7M35.3,163.3c2.1,0,4.1.4,5.9,1.3,1.8.8,3.3,2,4.6,3.5,1.3,1.5,2.3,3.3,3,5.5.7,2.2,1.1,4.6,1.1,7.3s-.4,5.2-1.1,7.4c-.7,2.2-1.7,4-3,5.6-1.3,1.6-2.8,2.8-4.6,3.6-1.8.8-3.7,1.2-5.9,1.2s-4.1-.4-5.9-1.2c-1.8-.8-3.3-2-4.6-3.6-1.3-1.5-2.3-3.4-3-5.6-.7-2.2-1-4.7-1-7.4s.3-5.2,1-7.3c.7-2.2,1.7-4,3-5.5,1.3-1.5,2.8-2.6,4.6-3.5,1.8-.8,3.7-1.2,5.9-1.2M35.3,194.8c1.5,0,2.9-.3,4.1-1,1.2-.7,2.3-1.6,3.2-2.8.9-1.2,1.6-2.7,2.1-4.4.5-1.7.7-3.7.7-5.8s-.2-4-.7-5.7c-.5-1.7-1.2-3.1-2.1-4.3-.9-1.2-1.9-2.1-3.2-2.7-1.2-.6-2.6-1-4.1-1s-2.9.3-4.1,1c-1.2.6-2.3,1.5-3.2,2.7-.9,1.2-1.5,2.6-2,4.3-.5,1.7-.7,3.6-.7,5.7s.2,4.1.7,5.8c.5,1.7,1.2,3.2,2,4.4.9,1.2,1.9,2.1,3.2,2.8,1.2.7,2.6,1,4.1,1M820.8,164v3.6h-15.3v10.7h12.9v3.7h-12.9v12.4h15.8v3.7h-20.1v-34h19.6M791.9,164v34h-4.4l-12.4-21.4-3.7-7h-.2c.1,1.7.3,3.5.4,5.3.1,1.8.2,3.6.2,5.4v17.8h-4.1v-34h4.5l12.3,21.3,3.7,7h.2c-.1-1.7-.2-3.5-.3-5.4-.1-1.8-.2-3.7-.2-5.4v-17.6h4.1M744.3,164c5.3,0,9.3,1.5,12,4.4,2.7,2.9,4.1,7,4.1,12.5s-.3,5.1-1,7.2c-.7,2.1-1.7,3.9-3.1,5.4-1.3,1.5-3,2.6-5,3.4-2,.8-4.2,1.2-6.8,1.2h-8.7v-34h8.5M740.1,194.5h3.9c4,0,7-1.2,8.9-3.5,2-2.4,3-5.7,3-10.1s-1-7.6-3-9.9c-2-2.3-5-3.5-8.9-3.5h-3.9v27M716.3,164c1.7,0,3.3.2,4.8.5,1.5.3,2.7.9,3.8,1.6,1,.7,1.9,1.7,2.5,2.9.6,1.2.9,2.7.9,4.5,0,2.6-.7,4.8-2.1,6.4-1.4,1.6-3.2,2.7-5.5,3.3l8.6,14.8h-4.9l-8.2-14.3h-6.2v14.3h-4.3v-34h10.6M710,180.1h5.7c2.6,0,4.7-.5,6.1-1.6,1.4-1.1,2.2-2.7,2.2-4.9s-.7-3.8-2.2-4.8c-1.4-.9-3.4-1.3-6.1-1.3h-5.7v12.7M689.3,164l11.5,34h-4.6l-3.2-10.4h-12.4l-3.3,10.4h-4.4l11.5-34h4.9M681.7,184.2h10.2l-1.6-5.2c-.6-1.9-1.2-3.8-1.8-5.7-.5-1.9-1.1-3.8-1.6-5.8h-.2c-.5,2-1.1,3.9-1.6,5.8-.5,1.9-1.1,3.8-1.8,5.7l-1.6,5.2M671.5,164h0M671.5,164l-7.1,34h-5.2l-5.1-20.5c-.3-1.3-.6-2.6-.9-3.8-.3-1.3-.5-2.6-.8-3.9h-.2c-.3,1.3-.5,2.6-.8,3.9-.3,1.2-.6,2.5-.9,3.8l-5.1,20.5h-5.1l-7.2-34h4.4l3.6,18.5c.3,1.9.6,3.7,1,5.5.3,1.8.7,3.7,1,5.5h.2c.4-1.9.8-3.7,1.2-5.5.4-1.8.8-3.6,1.2-5.5l4.8-18.5h3.9l4.7,18.5c.4,1.8.8,3.6,1.3,5.4.4,1.8.8,3.7,1.3,5.6h.2c.3-1.9.6-3.7,1-5.5.3-1.8.6-3.6,1-5.5l3.6-18.5h4.1M630.7,164h0M630.7,164l-10.6,13,12.3,21h-4.8l-10.2-17.7-5.9,6.9v10.8h-4.3v-34h4.3v17.1h.2l14.1-17.1h4.9M601.3,164h0M601.3,164l-7.1,34h-5.2l-5.1-20.5c-.3-1.3-.6-2.6-.9-3.8-.3-1.3-.5-2.6-.8-3.9h-.2c-.3,1.3-.5,2.6-.8,3.9-.3,1.2-.6,2.5-.9,3.8l-5.1,20.5h-5.1l-7.2-34h4.4l3.6,18.5c.3,1.9.6,3.7,1,5.5.3,1.8.7,3.7,1,5.5h.2c.4-1.9.8-3.7,1.2-5.5.4-1.8.8-3.6,1.2-5.5l4.8-18.5h3.9l4.7,18.5c.4,1.8.8,3.6,1.3,5.4.4,1.8.8,3.7,1.3,5.6h.2c.3-1.9.6-3.7,1-5.5.3-1.8.6-3.6,1-5.5l3.6-18.5h4.1M550.1,164l11.5,34h-4.6l-3.2-10.4h-12.4l-3.3,10.4h-4.4l11.5-34h4.9M542.5,184.2h10.2l-1.6-5.2c-.6-1.9-1.2-3.8-1.8-5.7-.5-1.9-1.1-3.8-1.6-5.8h-.2c-.5,2-1.1,3.9-1.6,5.8-.5,1.9-1.1,3.8-1.8,5.7l-1.6,5.2M465.4,164v3.6h-15.3v10.7h12.9v3.7h-12.9v12.4h15.8v3.7h-20.1v-34h19.6M424.9,164v30.3h14.9v3.7h-19.2v-34h4.3M400.8,164v34h-4.4v-16h-15.8v16h-4.3v-34h4.3v14.3h15.8v-14.3h4.4M370.2,164v3.6h-10.2v30.4h-4.4v-30.4h-10.3v-3.6h24.9M339.3,164v34h-4.3v-34h4.3M329,164h0M329,164l-7,34h-5.2l-5.1-20.5c-.3-1.3-.6-2.6-.9-3.8-.3-1.3-.5-2.6-.8-3.9h-.2c-.3,1.3-.6,2.6-.9,3.9-.3,1.2-.6,2.5-.9,3.8l-5,20.5h-5.1l-7.2-34h4.5l3.5,18.5c.3,1.9.6,3.7,1,5.5.3,1.8.7,3.7,1,5.5h.2c.4-1.9.8-3.7,1.2-5.5.4-1.8.8-3.6,1.2-5.5l4.7-18.5h3.9l4.8,18.5c.4,1.8.8,3.6,1.2,5.4.4,1.8.8,3.7,1.3,5.6h.2c.3-1.9.6-3.7,1-5.5.3-1.8.6-3.6,1-5.5l3.6-18.5h4.1M277.8,164h0M277.8,164l-7.1,34h-5.2l-5.1-20.5c-.3-1.3-.6-2.6-.9-3.8-.3-1.3-.5-2.6-.8-3.9h-.2c-.3,1.3-.5,2.6-.8,3.9-.3,1.2-.6,2.5-.9,3.8l-5.1,20.5h-5.1l-7.2-34h4.4l3.6,18.5c.3,1.9.6,3.7,1,5.5.3,1.8.7,3.7,1,5.5h.2c.4-1.9.8-3.7,1.2-5.5.4-1.8.8-3.6,1.2-5.5l4.8-18.5h3.9l4.7,18.5c.4,1.8.8,3.6,1.3,5.4.4,1.8.8,3.7,1.3,5.6h.2c.3-1.9.6-3.7,1-5.5.3-1.8.6-3.6,1-5.5l3.6-18.5h4.1M199.5,164v34h-4.5l-12.3-21.4-3.7-7h-.2c.1,1.7.3,3.5.4,5.3.1,1.8.2,3.6.2,5.4v17.8h-4.1v-34h4.4l12.3,21.3,3.7,7h.2c-.1-1.7-.2-3.5-.3-5.4-.1-1.8-.2-3.7-.2-5.4v-17.6h4.1M116.5,164v3.6h-15.3v10.7h12.9v3.7h-12.9v12.4h15.8v3.7h-20.1v-34h19.6M87.6,164v34h-4.3v-34h4.3M78.6,164l-10.8,34h-5.1l-10.9-34h4.6l5.4,18.4c.6,2,1.2,3.9,1.6,5.6.5,1.7,1,3.6,1.7,5.6h.2c.6-2,1.2-3.9,1.6-5.6.5-1.7,1-3.6,1.6-5.6l5.4-18.4h4.4M13.4,164v34h-4.1v-18.7c0-1.5,0-3.2.2-5.1.1-1.8.2-3.5.4-5h-.2l-2.8,7.6L.3,194.6h-2.4l-6.6-17.8-2.7-7.6h-.2c.1,1.5.2,3.2.4,5,.1,1.8.2,3.5.2,5.1v18.7h-4v-34h5.1l6.6,18.2,2.5,7h.2l2.4-7,6.5-18.2h5.1M154,192.1c1.1,0,2,.4,2.6,1.3.7.9,1,2.2,1,3.7,0,2.2-.6,4.2-1.8,5.8-1.2,1.7-2.9,3-5,3.8l-1-2.5c1.5-.6,2.6-1.5,3.5-2.6.8-1.1,1.2-2.3,1.2-3.7,0,0-.3,0-.5,0-.8,0-1.5-.2-2.1-.7-.6-.5-.9-1.3-.9-2.2s.3-1.7.9-2.2c.6-.5,1.4-.8,2.2-.8M865.3,161.3c-1.8,0-3.4.3-4.9.8-1.5.5-2.9,1.3-4,2.3-1.2,1-2.1,2.2-2.7,3.5-.7,1.4-1,2.9-1,4.4s.3,2.9.8,4.1h0s0,0,0,0c.5,1.2,1.2,2.2,2,3,.7.8,1.6,1.5,2.6,2.1.9.5,1.8,1,2.7,1.4l4.8,2.1c.7.3,1.5.7,2.2,1,.5.3,1,.6,1.3.9h0s0,0,0,0c.3.2.5.5.7.9.2.3.2.8.2,1.3,0,1.1-.3,1.8-1.1,2.5-.9.7-2.2,1.1-4,1.1s-2.9-.3-4.2-1c-1.4-.7-2.6-1.6-3.7-2.7l-1.5-1.6-1.5,1.7-2.6,3-.8.9c.5-1.3.8-2.8.8-4.3s-.2-2.8-.6-4h0s0,0,0,0c-.5-1.2-1.1-2.2-1.9-3.1-.7-.8-1.6-1.6-2.6-2.2-1-.6-2-1.1-3.1-1.6l-4.8-2.1c-.7-.3-1.3-.6-2-.9-.5-.3-1-.6-1.4-.9-.3-.3-.6-.6-.8-.9-.1-.3-.2-.7-.2-1.1,0-.9.3-1.5.9-2,.8-.6,1.9-.9,3.4-.9s2.4.2,3.4.7c1.1.5,2,1.1,2.9,2l1.5,1.5,1.4-1.6,2.3-2.8,1.2-1.4-1.2-1.3c-1.4-1.4-3.1-2.6-5-3.5-2-.9-4.2-1.3-6.5-1.3s-3.4.3-4.9.8c-1.5.5-2.9,1.3-4,2.3-1.2,1-2.1,2.2-2.7,3.5-.7,1.4-1,2.9-1,4.4s.3,2.9.8,4.1h0s0,0,0,0c.5,1.2,1.2,2.2,2,3,.7.8,1.6,1.5,2.6,2.1.9.5,1.8,1,2.7,1.4l4.8,2.1c.7.3,1.5.7,2.2,1s1,.6,1.3.9h0s0,0,0,0c.3.2.5.5.7.9.2.3.2.8.2,1.3,0,1.1-.3,1.8-1.1,2.5-.9.7-2.2,1.1-4,1.1s-2.9-.3-4.2-1c-1.4-.7-2.6-1.6-3.7-2.7l-1.5-1.6-1.5,1.7-2.6,3-1.2,1.4,1.2,1.3c1.6,1.7,3.6,3.1,5.9,4.1,2.3,1,4.8,1.5,7.5,1.5s3.8-.3,5.5-.8c1.7-.6,3.1-1.4,4.3-2.5,1.1-1,2.1-2.2,2.7-3.5l1.1,1.2c1.6,1.7,3.6,3.1,5.9,4.1,2.3,1,4.8,1.5,7.5,1.5s3.8-.3,5.5-.8c1.7-.6,3.1-1.4,4.3-2.5,1.2-1.1,2.2-2.3,2.8-3.7h0s0,0,0,0c.6-1.4.9-3,.9-4.6s-.2-2.8-.6-4h0s0,0,0,0c-.5-1.2-1.1-2.2-1.9-3.1-.7-.8-1.6-1.6-2.6-2.2-1-.6-2-1.1-3.1-1.6l-4.8-2.1c-.7-.3-1.3-.6-2-.9-.5-.3-1-.6-1.4-.9-.3-.3-.6-.6-.8-.9-.1-.3-.2-.7-.2-1.1,0-.9.3-1.5.9-2,.8-.6,1.9-.9,3.4-.9s2.4.2,3.4.7c1.1.5,2,1.1,2.9,2l1.5,1.5,1.4-1.6,2.3-2.8,1.2-1.4-1.2-1.3c-1.4-1.4-3.1-2.6-5-3.5-2-.9-4.2-1.3-6.5-1.3h0ZM509.9,161.3c-1.8,0-3.4.3-4.9.8-1.5.5-2.9,1.3-4,2.3-1.2,1-2.1,2.2-2.7,3.5-.7,1.4-1,2.9-1,4.4s.3,2.9.8,4.1h0s0,0,0,0c.5,1.2,1.2,2.2,2,3,.7.8,1.6,1.5,2.6,2.1.9.5,1.8,1,2.7,1.4l4.8,2.1c.7.3,1.5.7,2.2,1,.5.3,1,.6,1.3.9h0s0,0,0,0c.3.2.5.5.7.9.2.3.2.8.2,1.3,0,1.1-.3,1.8-1.1,2.5-.9.7-2.2,1.1-4,1.1s-2.9-.3-4.2-1c-1.4-.7-2.6-1.6-3.7-2.7l-1.5-1.6-1.5,1.7-2.6,3-.8.9c.5-1.3.8-2.8.8-4.3s-.2-2.8-.6-4h0s0,0,0,0c-.5-1.2-1.1-2.2-1.9-3.1-.7-.8-1.6-1.6-2.6-2.2-1-.6-2-1.1-3.1-1.6l-4.8-2.1c-.7-.3-1.3-.6-2-.9-.5-.3-1-.6-1.4-.9-.3-.3-.6-.6-.8-.9-.1-.3-.2-.7-.2-1.1,0-.9.3-1.5.9-2,.8-.6,1.9-.9,3.4-.9s2.4.2,3.4.7c1.1.5,2,1.1,2.9,2l1.5,1.5,1.4-1.6,2.3-2.8,1.2-1.4-1.2-1.3c-1.4-1.4-3.1-2.6-5-3.5-2-.9-4.2-1.3-6.5-1.3s-3.4.3-4.9.8c-1.5.5-2.9,1.3-4,2.3-1.2,1-2.1,2.2-2.7,3.5-.7,1.4-1,2.9-1,4.4s.3,2.9.8,4.1h0s0,0,0,0c.5,1.2,1.2,2.2,2,3,.7.8,1.6,1.5,2.6,2.1.9.5,1.8,1,2.7,1.4l4.8,2.1c.7.3,1.5.7,2.2,1,.5.3,1,.6,1.3.9h0s0,0,0,0c.3.2.5.5.7.9.2.3.2.8.2,1.3,0,1.1-.3,1.8-1.1,2.5-.9.7-2.2,1.1-4,1.1s-2.9-.3-4.2-1c-1.4-.7-2.6-1.6-3.7-2.7l-1.5-1.6-1.5,1.7-2.6,3-1.2,1.4,1.2,1.3c1.6,1.7,3.6,3.1,5.9,4.1,2.3,1,4.8,1.5,7.5,1.5s3.8-.3,5.5-.8c1.7-.6,3.1-1.4,4.3-2.5,1.1-1,2.1-2.2,2.7-3.5l1.1,1.2c1.6,1.7,3.6,3.1,5.9,4.1,2.3,1,4.8,1.5,7.5,1.5s3.8-.3,5.5-.8c1.7-.6,3.1-1.4,4.3-2.5,1.2-1.1,2.2-2.3,2.8-3.7h0s0,0,0,0c.6-1.4.9-3,.9-4.6s-.2-2.8-.6-4h0s0,0,0,0c-.5-1.2-1.1-2.2-1.9-3.1-.7-.8-1.6-1.6-2.6-2.2-1-.6-2-1.1-3.1-1.6l-4.8-2.1c-.7-.3-1.3-.6-2-.9-.5-.3-1-.6-1.4-.9-.3-.3-.6-.6-.8-.9-.1-.3-.2-.7-.2-1.1,0-.9.3-1.5.9-2,.8-.6,1.9-.9,3.4-.9s2.4.2,3.4.7c1.1.5,2,1.1,2.9,2l1.5,1.5,1.4-1.6,2.3-2.8,1.2-1.4-1.2-1.3c-1.4-1.4-3.1-2.6-5-3.5-2-.9-4.2-1.3-6.5-1.3h0ZM221.4,161.3c-2.4,0-4.7.5-6.7,1.4-2.1.9-3.8,2.3-5.3,4-1.5,1.7-2.6,3.8-3.4,6.2-.8,2.3-1.2,5-1.2,8s.4,5.6,1.2,8c.8,2.4,1.9,4.5,3.4,6.2,1.4,1.8,3.2,3.1,5.3,4.1,2.1.9,4.3,1.4,6.7,1.4s4.7-.5,6.7-1.4c2.1-1,3.9-2.4,5.3-4.1,1.4-1.7,2.6-3.8,3.4-6.2.8-2.4,1.1-5.1,1.1-8s-.4-5.6-1.1-7.9c-.8-2.4-2-4.5-3.4-6.2-1.5-1.7-3.3-3-5.3-4-2-.9-4.3-1.4-6.7-1.4h0ZM215.7,189.9c-.7-1-1.3-2.3-1.7-3.8-.4-1.5-.7-3.3-.7-5.2s.2-3.6.7-5.1c.4-1.5,1-2.7,1.7-3.7.7-.9,1.5-1.6,2.5-2.1.9-.5,2-.7,3.2-.7s2.2.2,3.2.7c1,.5,1.8,1.2,2.5,2.2.7,1,1.3,2.2,1.7,3.7.4,1.5.7,3.2.7,5.1s-.2,3.7-.7,5.2c-.4,1.5-1,2.7-1.7,3.8-.7,1-1.5,1.7-2.5,2.2-.9.5-2,.8-3.2.8s-2.2-.2-3.1-.7c-1-.5-1.8-1.3-2.5-2.2h0ZM134.1,161.3c-1.8,0-3.4.3-4.9.8-1.5.5-2.9,1.3-4,2.3-1.2,1-2.1,2.2-2.7,3.5-.7,1.4-1,2.9-1,4.4s.3,2.9.8,4.1h0s0,0,0,0c.5,1.2,1.2,2.2,2,3,.7.8,1.6,1.5,2.6,2.1.9.5,1.8,1,2.7,1.4l4.8,2.1c.7.3,1.5.7,2.2,1,.5.3,1,.6,1.3.9h0s0,0,0,0c.3.2.5.5.7.9.2.3.2.8.2,1.3,0,1.1-.3,1.8-1.1,2.5-.9.7-2.2,1.1-4,1.1s-2.9-.3-4.2-1c-1.4-.7-2.6-1.6-3.7-2.7l-1.5-1.6-1.5,1.7-2.6,3-1.2,1.4,1.2,1.3c1.6,1.7,3.6,3.1,5.9,4.1,2.3,1,4.8,1.5,7.5,1.5s3.8-.3,5.5-.8c1.7-.6,3.1-1.4,4.3-2.5,1.2-1.1,2.2-2.3,2.8-3.7h0s0,0,0,0c.6-1.4.9-3,.9-4.6s-.2-2.8-.6-4h0s0,0,0,0c-.5-1.2-1.1-2.2-1.9-3.1-.7-.8-1.6-1.6-2.6-2.2-1-.6-2-1.1-3.1-1.6l-4.8-2.1c-.7-.3-1.3-.6-2-.9-.5-.3-1-.6-1.4-.9-.3-.3-.6-.6-.8-.9-.1-.3-.2-.7-.2-1.1,0-.9.3-1.5.9-2,.8-.6,1.9-.9,3.4-.9s2.4.2,3.4.7c1.1.5,2,1.1,2.9,2l1.5,1.5,1.4-1.6,2.3-2.8,1.2-1.4-1.2-1.3c-1.4-1.4-3.1-2.6-5-3.5-2-.9-4.2-1.3-6.5-1.3h0ZM35.3,161.3c-2.4,0-4.7.5-6.7,1.4-2,.9-3.8,2.3-5.3,4-1.4,1.7-2.6,3.8-3.4,6.2-.8,2.4-1.1,5-1.1,8s.4,5.6,1.1,8c.8,2.4,1.9,4.5,3.3,6.2,1.5,1.8,3.3,3.2,5.3,4.1,2,.9,4.3,1.4,6.7,1.4s4.7-.5,6.7-1.4c2.1-1,3.9-2.4,5.3-4.1,1.5-1.7,2.6-3.8,3.4-6.3.8-2.4,1.2-5.1,1.2-8s-.4-5.6-1.2-7.9c-.8-2.4-1.9-4.5-3.4-6.2-1.5-1.7-3.3-3-5.3-4-2-.9-4.3-1.4-6.7-1.4h0ZM29.6,189.9c-.7-1-1.3-2.3-1.7-3.8-.4-1.5-.7-3.3-.7-5.2s.2-3.6.7-5.1c.4-1.5,1-2.7,1.7-3.7.7-.9,1.5-1.6,2.5-2.1.9-.5,2-.7,3.2-.7s2.2.2,3.2.7c1,.5,1.8,1.2,2.5,2.1.8,1,1.3,2.2,1.8,3.7.4,1.5.7,3.2.7,5.1s-.2,3.7-.7,5.2c-.4,1.5-1,2.7-1.8,3.8-.7,1-1.5,1.7-2.5,2.2-.9.5-2,.8-3.2.8s-2.3-.2-3.2-.8c-.9-.5-1.8-1.2-2.5-2.2h0ZM822.8,162h-23.6v38h24.1v-7.7h-15.8v-8.4h12.9v-7.7h-12.9v-6.7h15.3v-7.6h0ZM793.9,162h-8.1v19.6c0,.7,0,1.4,0,2.2l-11.9-20.8-.6-1h-7.7v38h8.1v-19.8c0-.7,0-1.3,0-2l12,20.8.6,1h7.6v-38h0ZM744.3,162h-10.5v38h10.7c2.8,0,5.3-.4,7.5-1.3,2.3-.9,4.2-2.2,5.7-3.9,1.5-1.7,2.7-3.7,3.5-6.1.8-2.3,1.1-5,1.1-7.8,0-5.9-1.6-10.6-4.7-13.9-3.1-3.3-7.6-5-13.4-5h0ZM742.1,169.5h1.9c3.4,0,5.8.9,7.4,2.8,1.7,1.9,2.5,4.8,2.5,8.6s-.8,6.8-2.5,8.8c-1.6,1.9-4,2.8-7.4,2.8h-1.9v-23h0ZM716.3,162h-12.6v38h8.3v-14.3h3l7.6,13.3.6,1h9.5l-1.7-3-7.4-12.7c1.6-.7,3-1.8,4.1-3,1.7-2,2.6-4.5,2.6-7.7s-.4-3.9-1.1-5.4c-.8-1.5-1.8-2.8-3.1-3.7-1.3-.9-2.8-1.6-4.5-2-1.6-.4-3.4-.5-5.3-.5h0ZM712,169.5h3.7c2.3,0,3.9.3,5,1,.5.3,1.2,1,1.2,3.1s-.8,2.9-1.4,3.3c-1.1.8-2.7,1.2-4.9,1.2h-3.7v-8.7h0ZM690.7,162h-7.8l-.5,1.4-11.5,34-.9,2.6h8.7l.4-1.4,2.8-9h9.4l2.8,9,.4,1.4h8.9l-.9-2.6-11.5-34-.5-1.4h0ZM684.4,182.2l.8-2.6c.6-1.7,1.1-3.4,1.6-5.1.5,1.7,1,3.4,1.6,5.1l.8,2.6h-4.8ZM674,162h-8.3l-.3,1.6-3.6,18.5c-.1.6-.2,1.1-.3,1.7-.1-.6-.3-1.2-.4-1.7h0s0,0,0,0l-4.7-18.5-.4-1.5h-7l-.4,1.5-4.8,18.5h0s0,0,0,0c-.1.5-.2,1.1-.3,1.6,0-.5-.2-1-.3-1.6l-3.6-18.5-.3-1.6h-14.5l-.6.7-10.8,13v-13.7h-8.3v38h8.3v-12.1l3.6-4.2,8.7,15.2.6,1h9.4l-1.8-3-11.6-19.8,9.1-11.1,6.9,32.4.3,1.6h8.3l.4-1.5,4.9-19.9,4.9,19.9.4,1.5h8.4l.3-1.6,7.1-34,.5-2.4h0ZM671.6,162h0,0ZM630.7,162h0,0ZM671.5,166h0,0ZM630.7,166h0,0ZM603.8,162h-8.3l-.3,1.6-3.6,18.5c-.1.6-.2,1.1-.3,1.7-.1-.6-.3-1.2-.4-1.7h0s0,0,0,0l-4.7-18.5-.4-1.5h-7l-.4,1.5-4.8,18.5h0s0,0,0,0c-.1.5-.2,1.1-.3,1.6,0-.5-.2-1-.3-1.6l-3.6-18.5-.3-1.6h-8.6l.5,2.4,7.2,34,.3,1.6h8.3l.4-1.5,4.9-19.9,4.9,19.9.4,1.5h8.4l.3-1.6,7.1-34,.5-2.4h0ZM601.3,162h0,0ZM601.3,166h0,0ZM551.5,162h-7.8l-.5,1.4-11.5,34-.9,2.6h8.7l.4-1.4,2.8-9h9.4l2.8,9,.4,1.4h8.9l-.9-2.6-11.5-34-.5-1.4h0ZM545.2,182.2l.8-2.6c.6-1.7,1.1-3.4,1.6-5.1.5,1.7,1,3.4,1.6,5.1l.8,2.6h-4.8ZM467.4,162h-23.6v38h24.1v-7.7h-15.8v-8.4h12.9v-7.7h-12.9v-6.7h15.3v-7.6h0ZM426.9,162h-8.3v38h23.2v-7.7h-14.9v-30.3h0ZM402.8,162h-8.4v14.3h-11.8v-14.3h-8.3v38h8.3v-16h11.8v16h8.4v-38h0ZM372.2,162h-28.9v7.6h10.3v30.4h8.4v-30.4h10.2v-7.6h0ZM341.3,162h-8.3v38h8.3v-38h0ZM331.5,162h-8.3l-.3,1.6-3.6,18.5c-.1.5-.2,1.1-.3,1.6l-.4-1.7h0s0,0,0,0l-4.8-18.5-.4-1.5h-7l-.4,1.5-4.7,18.5h0s0,0,0,0c-.1.6-.2,1.2-.4,1.7,0-.6-.2-1.1-.3-1.7l-3.6-18.5-.3-1.6h-8.6l.5,2.4,7.2,34,.3,1.6h8.3l.4-1.5,4.9-19.9,5,19.9.4,1.5h8.4l.3-1.6,7-34,.5-2.4h0ZM329,162h0,0ZM329,166h0,0ZM280.3,162h-8.3l-.3,1.6-3.6,18.5c-.1.6-.2,1.1-.3,1.7-.1-.6-.3-1.2-.4-1.7h0s0,0,0,0l-4.7-18.5-.4-1.5h-7l-.4,1.5-4.8,18.5h0s0,0,0,0c-.1.5-.2,1.1-.3,1.6,0-.5-.2-1-.3-1.6l-3.6-18.5-.3-1.6h-8.6l.5,2.4,7.2,34,.3,1.6h8.3l.4-1.5,4.9-19.9,4.9,19.9.4,1.5h8.4l.3-1.6,7.1-34,.5-2.4h0ZM277.8,162h0,0ZM277.8,166h0,0ZM201.5,162h-8.1v19.6c0,.7,0,1.4,0,2.2l-12-20.8-.6-1h-7.6v38h8.1v-19.8c0-.7,0-1.3,0-2l11.9,20.8.6,1h7.7v-38h0ZM118.5,162h-23.6v38h24.1v-7.7h-15.8v-8.4h12.9v-7.7h-12.9v-6.7h15.3v-7.6h0ZM89.6,162h-16.9l-.4,1.4-5.4,18.4c-.5,1.8-1,3.5-1.4,5.1-.4-1.6-.9-3.3-1.5-5.1l-5.4-18.3-.4-1.4h-8.9l.8,2.6,10.9,34,.4,1.4h8l.4-1.4,10.8-34,.8-2.4v37.8h8.3v-38h0ZM78.6,166h0,0ZM15.4,162H6.9l-.5,1.3L-.1,181.6l-.7,1.9-.7-1.9-6.6-18.2-.5-1.3h-8.5v38h8v-18.4l5.1,13.6.5,1.3H1.7l.5-1.3,5.1-13.8v18.5h8.1v-38h0ZM154,190.1c-1.3,0-2.6.5-3.6,1.3-.7.6-1.6,1.8-1.6,3.7s.9,3.1,1.6,3.7h0s0,0,0,0c.5.4,1,.7,1.5.9-.1.3-.3.5-.5.8-.6.8-1.5,1.5-2.7,2l-1.8.8.8,1.8,1,2.5.8,1.9,1.9-.8c2.5-1,4.4-2.6,5.9-4.5,1.5-2,2.2-4.3,2.2-7s-.5-3.6-1.4-4.9c-1-1.4-2.5-2.2-4.2-2.2h0Z"/>
        </g>
      </g>
    </g>
  </g>
</svg>